<svg width="350" height="350" viewBox="0 0 350 350" fill="none" xmlns="http://www.w3.org/2000/svg">
<circle cx="175" cy="175" r="142.5" fill="white" stroke="#071D2D" stroke-width="15"/>
<path fill-rule="evenodd" clip-rule="evenodd" d="M196.252 166.691L196.594 172.852L190.219 170.164L196.254 166.691H196.252ZM211.832 134.089C211.832 134.089 221.017 146.958 197.232 139.249C197.232 139.249 202.424 133.54 211.832 134.089ZM199.375 155.035C206.97 164.094 205.733 179.19 205.733 179.19C203.732 175.989 198.372 173.574 198.372 173.574C200.727 162.825 199.375 155.035 199.375 155.035ZM216.918 166.779L208.265 178.736L207.764 166.385L216.918 166.777V166.779ZM216.189 171.709L218.293 188.506L208.928 180.881L216.187 171.709H216.189ZM228.868 170.825C227.927 184.593 218.624 194.015 218.624 194.015C222.275 180.787 219.566 167.202 219.566 167.202L228.867 170.825H228.868ZM158.748 166.689L158.408 172.85L164.783 170.162L158.748 166.689ZM143.168 134.087C143.168 134.087 133.983 146.956 157.769 139.247C157.769 139.247 152.576 133.538 143.168 134.087ZM155.627 155.033C148.032 164.092 149.269 179.188 149.269 179.188C151.27 175.987 156.628 173.572 156.628 173.572C154.273 162.823 155.627 155.033 155.627 155.033ZM138.082 166.777L146.737 178.734L147.238 166.383L138.082 166.775V166.777ZM138.811 171.708L136.705 188.504L146.07 180.88L138.811 171.708ZM126.132 170.823C127.073 184.591 136.376 194.013 136.376 194.013C132.726 180.785 135.435 167.2 135.435 167.2L126.132 170.823ZM177.501 124.417C177.501 124.417 204.404 93.4975 223.713 115.48C236.535 89.3324 248.08 140.454 252.21 142.897C233.453 138.252 229.256 100.278 194.395 125.143C228.829 107.983 229.583 139.612 237.491 147.486C237.491 147.486 227.923 142.625 217.563 144.739C217.563 144.739 220.095 137.614 215.562 132.119C215.562 132.119 221.861 132.058 224.804 136.345C218.883 102.404 189.873 151.934 183.827 130.85C183.827 130.85 182.002 136.043 183.474 139.667C183.474 139.667 178.887 135.68 177.501 125.837C176.115 135.68 171.527 139.667 171.527 139.667C173 136.043 171.173 130.85 171.173 130.85C165.127 151.934 136.119 102.404 130.198 136.345C133.142 132.058 139.442 132.119 139.442 132.119C134.909 137.614 137.441 144.739 137.441 144.739C127.079 142.627 117.513 147.486 117.513 147.486C125.423 139.612 126.173 107.983 160.608 125.143C125.746 100.278 121.549 138.252 102.794 142.897C106.924 140.452 118.466 89.3324 131.29 115.48C150.602 93.4975 177.503 124.417 177.503 124.417H177.501ZM196.396 106.662C196.396 106.662 185.451 105.212 177.501 113.546C169.55 105.212 158.606 106.662 158.606 106.662C165.346 99.6238 189.656 99.6238 196.396 106.662ZM260.047 176.944C268.913 164.478 261.243 157.595 256.843 154.931C262.986 154.81 267.762 151.476 269.421 145.43C249.402 143.679 256.102 82.2254 222.199 103.811C219.846 94.2466 204.788 99.1791 202.467 100.001C189.261 89.8574 165.732 89.8574 152.528 100.001C150.209 99.1791 135.15 94.2466 132.796 103.811C98.8967 82.229 105.596 143.682 85.5794 145.434C87.2374 151.48 92.014 154.814 98.1555 154.934C93.7591 157.599 86.0876 164.482 94.9516 176.948C43.1842 283.159 311.816 283.159 260.047 176.948V176.944ZM253.122 183.328C253.122 183.328 259.364 210.624 234.873 228.015C234.873 228.015 239.936 212.436 232.163 200.598C232.163 200.598 236.755 222.337 209.202 243.113C209.202 243.113 218.387 234.174 217.444 219.681C210.524 255.767 144.473 255.767 137.553 219.681C136.611 234.174 145.795 243.113 145.795 243.113C118.24 222.337 122.834 200.598 122.834 200.598C115.062 212.436 120.125 228.015 120.125 228.015C95.6339 210.622 101.877 183.328 101.877 183.328C105.998 191.178 112.827 193.111 112.827 193.111C82.992 155.084 115.32 152.738 153.097 149.931C147.092 146.85 142.088 147.577 142.088 147.577C149.77 143.784 162.86 138.387 169.817 145.523C169.817 145.523 162.161 145.764 160.514 153.252C160.742 153.465 182.119 168.35 172.879 168.35L169.287 166.418L166.638 168.53C166.638 168.53 162.869 165.51 158.042 163.458C158.042 163.458 156.747 154.581 158.513 149.265C158.513 149.265 152.86 151.56 149.681 161.223C149.681 161.223 136.494 155.908 118.007 163.396C118.007 163.396 111.532 186.222 140.027 207.239C140.483 165.461 214.515 165.461 214.974 207.239C243.469 186.224 236.991 163.396 236.991 163.396C218.505 155.908 205.317 161.223 205.317 161.223C202.138 151.56 196.485 149.265 196.485 149.265C198.252 154.581 196.956 163.458 196.956 163.458C192.128 165.51 188.361 168.53 188.361 168.53L185.711 166.418L182.119 168.35C172.879 168.35 194.257 153.465 194.482 153.252C192.833 145.764 185.179 145.523 185.179 145.523C192.138 138.387 205.228 143.784 212.911 147.577C212.911 147.577 207.906 146.852 201.902 149.931C239.678 152.738 272.006 155.084 242.173 193.111C242.173 193.111 249.002 191.178 253.123 183.328H253.122Z" fill="url(#paint0_linear_106_107)"/>
<path d="M270 92H85V257H270V92Z" fill="white"/>
<path fill-rule="evenodd" clip-rule="evenodd" d="M196.252 166.691L196.594 172.852L190.219 170.164L196.254 166.691H196.252ZM211.832 134.089C211.832 134.089 221.017 146.958 197.232 139.249C197.232 139.249 202.424 133.54 211.832 134.089ZM199.375 155.035C206.97 164.094 205.733 179.19 205.733 179.19C203.732 175.989 198.372 173.574 198.372 173.574C200.727 162.825 199.375 155.035 199.375 155.035ZM216.918 166.779L208.265 178.736L207.764 166.385L216.918 166.777V166.779ZM216.189 171.709L218.293 188.506L208.928 180.881L216.187 171.709H216.189ZM228.868 170.825C227.927 184.593 218.624 194.015 218.624 194.015C222.275 180.787 219.566 167.202 219.566 167.202L228.867 170.825H228.868ZM158.748 166.689L158.408 172.85L164.783 170.162L158.748 166.689ZM143.168 134.087C143.168 134.087 133.983 146.956 157.769 139.247C157.769 139.247 152.576 133.538 143.168 134.087ZM155.627 155.033C148.032 164.092 149.269 179.188 149.269 179.188C151.27 175.987 156.628 173.572 156.628 173.572C154.273 162.823 155.627 155.033 155.627 155.033ZM138.082 166.777L146.737 178.734L147.238 166.383L138.082 166.775V166.777ZM138.811 171.708L136.705 188.504L146.07 180.88L138.811 171.708ZM126.132 170.823C127.073 184.591 136.376 194.013 136.376 194.013C132.726 180.785 135.435 167.2 135.435 167.2L126.132 170.823ZM177.501 124.417C177.501 124.417 204.404 93.4975 223.713 115.48C236.535 89.3324 248.08 140.454 252.21 142.897C233.453 138.252 229.256 100.278 194.395 125.143C228.829 107.983 229.583 139.612 237.491 147.486C237.491 147.486 227.923 142.625 217.563 144.739C217.563 144.739 220.095 137.614 215.562 132.119C215.562 132.119 221.861 132.058 224.804 136.345C218.883 102.404 189.873 151.934 183.827 130.85C183.827 130.85 182.002 136.043 183.474 139.667C183.474 139.667 178.887 135.68 177.501 125.837C176.115 135.68 171.527 139.667 171.527 139.667C173 136.043 171.173 130.85 171.173 130.85C165.127 151.934 136.119 102.404 130.198 136.345C133.142 132.058 139.442 132.119 139.442 132.119C134.909 137.614 137.441 144.739 137.441 144.739C127.079 142.627 117.513 147.486 117.513 147.486C125.423 139.612 126.173 107.983 160.608 125.143C125.746 100.278 121.549 138.252 102.794 142.897C106.924 140.452 118.466 89.3324 131.29 115.48C150.602 93.4975 177.503 124.417 177.503 124.417H177.501ZM196.396 106.662C196.396 106.662 185.451 105.212 177.501 113.546C169.55 105.212 158.606 106.662 158.606 106.662C165.346 99.6238 189.656 99.6238 196.396 106.662ZM260.047 176.944C268.913 164.478 261.243 157.595 256.843 154.931C262.986 154.81 267.762 151.476 269.421 145.43C249.402 143.679 256.102 82.2254 222.199 103.811C219.846 94.2466 204.788 99.1791 202.467 100.001C189.261 89.8574 165.732 89.8574 152.528 100.001C150.209 99.1791 135.15 94.2466 132.796 103.811C98.8967 82.229 105.596 143.682 85.5794 145.434C87.2374 151.48 92.014 154.814 98.1555 154.934C93.7591 157.599 86.0876 164.482 94.9516 176.948C43.1842 283.159 311.816 283.159 260.047 176.948V176.944ZM253.122 183.328C253.122 183.328 259.364 210.624 234.873 228.015C234.873 228.015 239.936 212.436 232.163 200.598C232.163 200.598 236.755 222.337 209.202 243.113C209.202 243.113 218.387 234.174 217.444 219.681C210.524 255.767 144.473 255.767 137.553 219.681C136.611 234.174 145.795 243.113 145.795 243.113C118.24 222.337 122.834 200.598 122.834 200.598C115.062 212.436 120.125 228.015 120.125 228.015C95.6339 210.622 101.877 183.328 101.877 183.328C105.998 191.178 112.827 193.111 112.827 193.111C82.992 155.084 115.32 152.738 153.097 149.931C147.092 146.85 142.088 147.577 142.088 147.577C149.77 143.784 162.86 138.387 169.817 145.523C169.817 145.523 162.161 145.764 160.514 153.252C160.742 153.465 182.119 168.35 172.879 168.35L169.287 166.418L166.638 168.53C166.638 168.53 162.869 165.51 158.042 163.458C158.042 163.458 156.747 154.581 158.513 149.265C158.513 149.265 152.86 151.56 149.681 161.223C149.681 161.223 136.494 155.908 118.007 163.396C118.007 163.396 111.532 186.222 140.027 207.239C140.483 165.461 214.515 165.461 214.974 207.239C243.469 186.224 236.991 163.396 236.991 163.396C218.505 155.908 205.317 161.223 205.317 161.223C202.138 151.56 196.485 149.265 196.485 149.265C198.252 154.581 196.956 163.458 196.956 163.458C192.128 165.51 188.361 168.53 188.361 168.53L185.711 166.418L182.119 168.35C172.879 168.35 194.257 153.465 194.482 153.252C192.833 145.764 185.179 145.523 185.179 145.523C192.138 138.387 205.228 143.784 212.911 147.577C212.911 147.577 207.906 146.852 201.902 149.931C239.678 152.738 272.006 155.084 242.173 193.111C242.173 193.111 249.002 191.178 253.123 183.328H253.122Z" fill="black"/>
<path d="M152.009 139.986C154.143 139.986 155.872 138.225 155.872 136.052C155.872 133.88 154.143 132.119 152.009 132.119C149.876 132.119 148.147 133.88 148.147 136.052C148.147 138.225 149.876 139.986 152.009 139.986Z" fill="url(#paint1_linear_106_107)"/>
<path d="M203.184 139.986C205.317 139.986 207.046 138.225 207.046 136.052C207.046 133.88 205.317 132.119 203.184 132.119C201.051 132.119 199.322 133.88 199.322 136.052C199.322 138.225 201.051 139.986 203.184 139.986Z" fill="url(#paint2_linear_106_107)"/>
<path d="M203.184 136.839C203.61 136.839 203.956 136.487 203.956 136.052C203.956 135.618 203.61 135.266 203.184 135.266C202.757 135.266 202.411 135.618 202.411 136.052C202.411 136.487 202.757 136.839 203.184 136.839Z" fill="#767676"/>
<path d="M152.782 136.839C153.208 136.839 153.554 136.487 153.554 136.052C153.554 135.618 153.208 135.266 152.782 135.266C152.355 135.266 152.009 135.618 152.009 136.052C152.009 136.487 152.355 136.839 152.782 136.839Z" fill="#767676"/>
<defs>
<linearGradient id="paint0_linear_106_107" x1="177.5" y1="92" x2="177.5" y2="257" gradientUnits="userSpaceOnUse">
<stop stop-color="#071D2D"/>
<stop offset="1" stop-color="#31383D"/>
</linearGradient>
<linearGradient id="paint1_linear_106_107" x1="177.5" y1="92" x2="177.5" y2="257" gradientUnits="userSpaceOnUse">
<stop stop-color="#071D2D"/>
<stop offset="1" stop-color="#31383D"/>
</linearGradient>
<linearGradient id="paint2_linear_106_107" x1="177.5" y1="92" x2="177.5" y2="257" gradientUnits="userSpaceOnUse">
<stop stop-color="#071D2D"/>
<stop offset="1" stop-color="#31383D"/>
</linearGradient>
</defs>
</svg>
