<svg width="1000" height="1000" viewBox="0 0 1000 1000" fill="none" xmlns="http://www.w3.org/2000/svg">
<g filter="url(#filter0_d_324_1839)">
<circle cx="500" cy="500" r="430" fill="white"/>
<circle cx="500" cy="500" r="430" stroke="#8E8E8E" stroke-width="40"/>
<circle cx="500" cy="500" r="430" stroke="black" stroke-width="40"/>
<g filter="url(#filter1_i_324_1839)">
<circle cx="500" cy="500" r="410" stroke="#4F4F4F" stroke-width="10"/>
</g>
<path fill-rule="evenodd" clip-rule="evenodd" d="M565.851 472.959L567.05 494.018L544.654 484.829L565.857 472.959H565.851ZM620.59 361.521C620.59 361.521 652.863 405.508 569.291 379.159C569.291 379.159 587.535 359.645 620.59 361.521ZM576.821 433.116C603.507 464.081 599.161 515.682 599.161 515.682C592.131 504.741 573.3 496.486 573.3 496.486C581.573 459.745 576.821 433.116 576.821 433.116ZM638.459 473.258L608.059 514.131L606.298 471.913L638.459 473.252V473.258ZM635.899 490.112L643.292 547.526L610.387 521.464L635.893 490.112H635.899ZM680.448 487.091C677.139 534.149 644.453 566.355 644.453 566.355C657.284 521.14 647.762 474.704 647.762 474.704L680.442 487.091H680.448ZM434.078 472.953L432.886 494.012L455.281 484.823L434.078 472.953ZM379.339 361.515C379.339 361.515 347.066 405.502 430.638 379.153C430.638 379.153 412.394 359.639 379.339 361.515ZM423.114 433.109C396.429 464.075 400.774 515.676 400.774 515.676C407.804 504.735 426.629 496.479 426.629 496.479C418.356 459.739 423.114 433.109 423.114 433.109ZM361.47 473.252L391.877 514.125L393.637 471.907L361.47 473.246V473.252ZM364.03 490.106L356.631 547.52L389.535 521.458L364.03 490.106ZM319.481 487.084C322.79 534.143 355.476 566.348 355.476 566.348C342.652 521.134 352.167 474.698 352.167 474.698L319.481 487.084ZM499.968 328.462C499.968 328.462 594.491 222.774 662.335 297.914C707.383 208.537 747.948 383.278 762.459 391.627C696.556 375.751 681.809 245.952 559.326 330.942C680.31 272.288 682.958 380.4 710.742 407.315C710.742 407.315 677.126 390.699 640.726 397.926C640.726 397.926 649.623 373.57 633.695 354.786C633.695 354.786 655.829 354.58 666.168 369.234C645.364 253.216 543.437 422.517 522.196 350.45C522.196 350.45 515.783 368.2 520.953 380.586C520.953 380.586 504.838 366.96 499.968 333.315C495.098 366.96 478.977 380.586 478.977 380.586C484.152 368.2 477.734 350.45 477.734 350.45C456.493 422.517 354.571 253.216 333.767 369.234C344.112 354.58 366.246 354.786 366.246 354.786C350.319 373.57 359.216 397.926 359.216 397.926C322.809 390.705 289.199 407.315 289.199 407.315C316.99 380.4 319.625 272.288 440.615 330.942C318.126 245.952 303.379 375.751 237.483 391.627C251.993 383.272 292.546 208.537 337.606 297.914C405.457 222.774 499.974 328.462 499.974 328.462H499.968ZM566.357 267.771C566.357 267.771 527.902 262.818 499.968 291.303C472.034 262.818 433.578 267.771 433.578 267.771C457.261 243.715 542.675 243.715 566.357 267.771ZM789.994 508.006C821.145 465.395 794.195 441.869 778.736 432.761C800.321 432.349 817.101 420.954 822.929 400.287C752.594 394.3 776.132 184.245 657.016 258.026C648.749 225.335 595.84 242.195 587.685 245.005C541.288 210.332 458.616 210.332 412.225 245.005C404.077 242.195 351.168 225.335 342.895 258.026C223.791 184.257 247.329 394.312 177 400.3C182.825 420.966 199.608 432.362 221.186 432.773C205.74 441.882 178.786 465.408 209.929 508.019C28.0441 871.063 971.886 871.063 789.994 508.019V508.006ZM765.662 529.826C765.662 529.826 787.596 623.127 701.545 682.572C701.545 682.572 719.333 629.32 692.024 588.859C692.024 588.859 708.157 663.164 611.349 734.179C611.349 734.179 643.623 703.625 640.307 654.086C615.994 777.431 383.923 777.431 359.609 654.086C356.3 703.625 388.568 734.179 388.568 734.179C291.753 663.164 307.893 588.859 307.893 588.859C280.589 629.32 298.378 682.572 298.378 682.572C212.327 623.121 234.261 529.826 234.261 529.826C248.74 556.66 272.735 563.264 272.735 563.264C167.909 433.284 281.495 425.265 414.223 415.67C393.126 405.141 375.543 407.626 375.543 407.626C402.535 394.661 448.526 376.212 472.97 400.605C472.97 400.605 446.072 401.427 440.284 427.022C441.083 427.751 516.195 478.629 483.728 478.629L471.109 472.025L461.8 479.246C461.8 479.246 448.557 468.922 431.599 461.907C431.599 461.907 427.048 431.564 433.254 413.396C433.254 413.396 413.392 421.24 402.222 454.268C402.222 454.268 355.888 436.1 290.935 461.695C290.935 461.695 268.183 539.719 368.301 611.557C369.906 468.754 630.017 468.754 631.628 611.557C731.746 539.725 708.988 461.695 708.988 461.695C644.035 436.1 597.7 454.268 597.7 454.268C586.531 421.24 566.669 413.396 566.669 413.396C572.875 431.564 568.324 461.907 568.324 461.907C551.359 468.922 538.123 479.246 538.123 479.246L528.814 472.025L516.195 478.629C483.728 478.629 558.84 427.751 559.632 427.022C553.839 401.427 526.946 400.605 526.946 400.605C551.397 376.212 597.388 394.661 624.38 407.626C624.38 407.626 606.797 405.147 585.7 415.67C718.428 425.265 832.014 433.284 727.195 563.264C727.195 563.264 751.189 556.66 765.668 529.826H765.662Z" fill="#2D2D2D"/>
<path d="M410.403 381.678C417.898 381.678 423.973 375.659 423.973 368.233C423.973 360.808 417.898 354.789 410.403 354.789C402.908 354.789 396.833 360.808 396.833 368.233C396.833 375.659 402.908 381.678 410.403 381.678Z" fill="#434343"/>
<path d="M590.205 381.678C597.699 381.678 603.775 375.659 603.775 368.233C603.775 360.808 597.699 354.789 590.205 354.789C582.71 354.789 576.635 360.808 576.635 368.233C576.635 375.659 582.71 381.678 590.205 381.678Z" fill="#434343"/>
<path d="M590.204 370.921C591.703 370.921 592.918 369.717 592.918 368.232C592.918 366.747 591.703 365.543 590.204 365.543C588.705 365.543 587.49 366.747 587.49 368.232C587.49 369.717 588.705 370.921 590.204 370.921Z" fill="#F5F5F5" fill-opacity="0.95"/>
<path d="M413.116 370.921C414.615 370.921 415.83 369.717 415.83 368.232C415.83 366.747 414.615 365.543 413.116 365.543C411.618 365.543 410.402 366.747 410.402 368.232C410.402 369.717 411.618 370.921 413.116 370.921Z" fill="#F5F5F5" fill-opacity="0.95"/>
</g>
<defs>
<filter id="filter0_d_324_1839" x="-4" y="0" width="1008" height="1008" filterUnits="userSpaceOnUse" color-interpolation-filters="sRGB">
<feFlood flood-opacity="0" result="BackgroundImageFix"/>
<feColorMatrix in="SourceAlpha" type="matrix" values="0 0 0 0 0 0 0 0 0 0 0 0 0 0 0 0 0 0 127 0" result="hardAlpha"/>
<feOffset dy="4"/>
<feGaussianBlur stdDeviation="2"/>
<feComposite in2="hardAlpha" operator="out"/>
<feColorMatrix type="matrix" values="0 0 0 0 0 0 0 0 0 0 0 0 0 0 0 0 0 0 0.25 0"/>
<feBlend mode="normal" in2="BackgroundImageFix" result="effect1_dropShadow_324_1839"/>
<feBlend mode="normal" in="SourceGraphic" in2="effect1_dropShadow_324_1839" result="shape"/>
</filter>
<filter id="filter1_i_324_1839" x="85" y="85" width="830" height="834" filterUnits="userSpaceOnUse" color-interpolation-filters="sRGB">
<feFlood flood-opacity="0" result="BackgroundImageFix"/>
<feBlend mode="normal" in="SourceGraphic" in2="BackgroundImageFix" result="shape"/>
<feColorMatrix in="SourceAlpha" type="matrix" values="0 0 0 0 0 0 0 0 0 0 0 0 0 0 0 0 0 0 127 0" result="hardAlpha"/>
<feOffset dy="4"/>
<feGaussianBlur stdDeviation="2"/>
<feComposite in2="hardAlpha" operator="arithmetic" k2="-1" k3="1"/>
<feColorMatrix type="matrix" values="0 0 0 0 0 0 0 0 0 0 0 0 0 0 0 0 0 0 0.25 0"/>
<feBlend mode="normal" in2="shape" result="effect1_innerShadow_324_1839"/>
</filter>
</defs>
</svg>
