<svg width="300" height="300" viewBox="0 0 300 300" fill="none" xmlns="http://www.w3.org/2000/svg">
<g clip-path="url(#clip0_112_59)">
<circle cx="150" cy="150" r="143.5" fill="white" stroke="black" stroke-width="13"/>
<path fill-rule="evenodd" clip-rule="evenodd" d="M170.973 141.691L171.31 147.852L165.019 145.164L170.975 141.691H170.973ZM186.348 109.089C186.348 109.089 195.412 121.958 171.939 114.249C171.939 114.249 177.064 108.54 186.348 109.089ZM174.054 130.035C181.549 139.094 180.329 154.19 180.329 154.19C178.354 150.989 173.065 148.574 173.065 148.574C175.389 137.825 174.054 130.035 174.054 130.035ZM191.367 141.779L182.828 153.736L182.333 141.385L191.367 141.777V141.779ZM190.648 146.709L192.724 163.506L183.482 155.881L190.646 146.709H190.648ZM203.16 145.825C202.231 159.593 193.05 169.015 193.05 169.015C196.654 155.787 193.98 142.202 193.98 142.202L203.158 145.825H203.16ZM133.962 141.689L133.627 147.85L139.917 145.162L133.962 141.689ZM118.587 109.087C118.587 109.087 109.523 121.956 132.996 114.247C132.996 114.247 127.871 108.538 118.587 109.087ZM130.882 130.033C123.387 139.092 124.608 154.188 124.608 154.188C126.582 150.987 131.87 148.572 131.87 148.572C129.546 137.823 130.882 130.033 130.882 130.033ZM113.568 141.777L122.109 153.734L122.603 141.383L113.568 141.775V141.777ZM114.287 146.708L112.209 163.504L121.451 155.88L114.287 146.708ZM101.775 145.823C102.704 159.591 111.885 169.013 111.885 169.013C108.283 155.785 110.956 142.2 110.956 142.2L101.775 145.823ZM152.468 99.4173C152.468 99.4173 179.017 68.4975 198.073 90.4801C210.725 64.3324 222.119 115.454 226.194 117.897C207.684 113.252 203.542 75.2782 169.14 100.143C203.121 82.9832 203.865 114.612 211.669 122.486C211.669 122.486 202.227 117.625 192.003 119.739C192.003 119.739 194.502 112.614 190.028 107.119C190.028 107.119 196.245 107.058 199.149 111.345C193.306 77.4036 164.678 126.934 158.712 105.85C158.712 105.85 156.91 111.043 158.362 114.667C158.362 114.667 153.836 110.68 152.468 100.837C151.101 110.68 146.573 114.667 146.573 114.667C148.026 111.043 146.223 105.85 146.223 105.85C140.258 126.934 111.631 77.4036 105.787 111.345C108.693 107.058 114.91 107.119 114.91 107.119C110.436 112.614 112.935 119.739 112.935 119.739C102.71 117.627 93.2697 122.486 93.2697 122.486C101.075 114.612 101.815 82.9832 135.798 100.143C101.394 75.2782 97.2524 113.252 78.7441 117.897C82.8196 115.452 94.2098 64.3324 106.866 90.4801C125.923 68.4975 152.47 99.4173 152.47 99.4173H152.468ZM171.115 81.6616C171.115 81.6616 160.314 80.2125 152.468 88.5462C144.623 80.2125 133.822 81.6616 133.822 81.6616C140.473 74.6238 164.464 74.6238 171.115 81.6616ZM233.928 151.944C242.678 139.478 235.108 132.595 230.766 129.931C236.829 129.81 241.542 126.476 243.179 120.43C223.424 118.679 230.035 57.2254 196.579 78.8107C194.257 69.2466 179.396 74.1791 177.106 75.0012C164.074 64.8574 140.854 64.8574 127.824 75.0012C125.535 74.1791 110.675 69.2466 108.351 78.8107C74.8984 57.229 81.5096 118.682 61.7563 120.434C63.3925 126.48 68.1063 129.814 74.167 129.934C69.8285 132.599 62.2579 139.482 71.0052 151.948C19.919 258.159 285.016 258.159 233.928 151.948V151.944ZM227.094 158.328C227.094 158.328 233.255 185.624 209.086 203.015C209.086 203.015 214.082 187.436 206.411 175.598C206.411 175.598 210.943 197.337 183.752 218.113C183.752 218.113 192.817 209.174 191.886 194.681C185.057 230.767 119.875 230.767 113.046 194.681C112.116 209.174 121.179 218.113 121.179 218.113C93.987 197.337 98.5203 175.598 98.5203 175.598C90.8514 187.436 95.8477 203.015 95.8477 203.015C71.6785 185.622 77.8393 158.328 77.8393 158.328C81.906 166.178 88.6453 168.111 88.6453 168.111C59.203 130.084 91.1058 127.738 128.385 124.931C122.46 121.85 117.521 122.577 117.521 122.577C125.102 118.784 138.02 113.387 144.886 120.523C144.886 120.523 137.331 120.764 135.705 128.252C135.929 128.465 157.026 143.35 147.907 143.35L144.363 141.418L141.748 143.53C141.748 143.53 138.029 140.51 133.266 138.458C133.266 138.458 131.987 129.581 133.731 124.265C133.731 124.265 128.152 126.56 125.015 136.223C125.015 136.223 112.001 130.908 93.7574 138.396C93.7574 138.396 87.367 161.222 115.487 182.239C115.938 140.461 188.996 140.461 189.448 182.239C217.568 161.224 211.176 138.396 211.176 138.396C192.933 130.908 179.919 136.223 179.919 136.223C176.781 126.56 171.203 124.265 171.203 124.265C172.946 129.581 171.668 138.458 171.668 138.458C166.903 140.51 163.185 143.53 163.185 143.53L160.57 141.418L157.026 143.35C147.907 143.35 169.004 128.465 169.226 128.252C167.599 120.764 160.046 120.523 160.046 120.523C166.913 113.387 179.831 118.784 187.412 122.577C187.412 122.577 182.474 121.852 176.548 124.931C213.828 127.738 245.73 130.084 216.29 168.111C216.29 168.111 223.029 166.178 227.096 158.328H227.094Z" fill="url(#paint0_linear_112_59)"/>
<path d="M243.75 67H61.1846V232H243.75V67Z" fill="white"/>
<path fill-rule="evenodd" clip-rule="evenodd" d="M170.973 141.691L171.31 147.852L165.019 145.164L170.975 141.691H170.973ZM186.348 109.089C186.348 109.089 195.412 121.958 171.939 114.249C171.939 114.249 177.064 108.54 186.348 109.089ZM174.054 130.035C181.549 139.094 180.329 154.19 180.329 154.19C178.354 150.989 173.065 148.574 173.065 148.574C175.389 137.825 174.054 130.035 174.054 130.035ZM191.367 141.779L182.828 153.736L182.333 141.385L191.367 141.777V141.779ZM190.648 146.709L192.724 163.506L183.482 155.881L190.646 146.709H190.648ZM203.16 145.825C202.231 159.593 193.05 169.015 193.05 169.015C196.654 155.787 193.98 142.202 193.98 142.202L203.158 145.825H203.16ZM133.962 141.689L133.627 147.85L139.917 145.162L133.962 141.689ZM118.587 109.087C118.587 109.087 109.523 121.956 132.996 114.247C132.996 114.247 127.871 108.538 118.587 109.087ZM130.882 130.033C123.387 139.092 124.608 154.188 124.608 154.188C126.582 150.987 131.87 148.572 131.87 148.572C129.546 137.823 130.882 130.033 130.882 130.033ZM113.568 141.777L122.109 153.734L122.603 141.383L113.568 141.775V141.777ZM114.287 146.708L112.209 163.504L121.451 155.88L114.287 146.708ZM101.775 145.823C102.704 159.591 111.885 169.013 111.885 169.013C108.283 155.785 110.956 142.2 110.956 142.2L101.775 145.823ZM152.468 99.4173C152.468 99.4173 179.017 68.4975 198.073 90.4801C210.725 64.3324 222.119 115.454 226.194 117.897C207.684 113.252 203.542 75.2782 169.14 100.143C203.121 82.9832 203.865 114.612 211.669 122.486C211.669 122.486 202.227 117.625 192.003 119.739C192.003 119.739 194.502 112.614 190.028 107.119C190.028 107.119 196.245 107.058 199.149 111.345C193.306 77.4036 164.678 126.934 158.712 105.85C158.712 105.85 156.91 111.043 158.362 114.667C158.362 114.667 153.836 110.68 152.468 100.837C151.101 110.68 146.573 114.667 146.573 114.667C148.026 111.043 146.223 105.85 146.223 105.85C140.258 126.934 111.631 77.4036 105.787 111.345C108.693 107.058 114.91 107.119 114.91 107.119C110.436 112.614 112.935 119.739 112.935 119.739C102.71 117.627 93.2697 122.486 93.2697 122.486C101.075 114.612 101.815 82.9832 135.798 100.143C101.394 75.2782 97.2524 113.252 78.7441 117.897C82.8196 115.452 94.2098 64.3324 106.866 90.4801C125.923 68.4975 152.47 99.4173 152.47 99.4173H152.468ZM171.115 81.6616C171.115 81.6616 160.314 80.2125 152.468 88.5462C144.623 80.2125 133.822 81.6616 133.822 81.6616C140.473 74.6238 164.464 74.6238 171.115 81.6616ZM233.928 151.944C242.678 139.478 235.108 132.595 230.766 129.931C236.829 129.81 241.542 126.476 243.179 120.43C223.424 118.679 230.035 57.2254 196.579 78.8107C194.257 69.2466 179.396 74.1791 177.106 75.0012C164.074 64.8574 140.854 64.8574 127.824 75.0012C125.535 74.1791 110.675 69.2466 108.351 78.8107C74.8984 57.229 81.5096 118.682 61.7563 120.434C63.3925 126.48 68.1063 129.814 74.167 129.934C69.8285 132.599 62.2579 139.482 71.0052 151.948C19.919 258.159 285.016 258.159 233.928 151.948V151.944ZM227.094 158.328C227.094 158.328 233.255 185.624 209.086 203.015C209.086 203.015 214.082 187.436 206.411 175.598C206.411 175.598 210.943 197.337 183.752 218.113C183.752 218.113 192.817 209.174 191.886 194.681C185.057 230.767 119.875 230.767 113.046 194.681C112.116 209.174 121.179 218.113 121.179 218.113C93.987 197.337 98.5203 175.598 98.5203 175.598C90.8514 187.436 95.8477 203.015 95.8477 203.015C71.6785 185.622 77.8393 158.328 77.8393 158.328C81.906 166.178 88.6453 168.111 88.6453 168.111C59.203 130.084 91.1058 127.738 128.385 124.931C122.46 121.85 117.521 122.577 117.521 122.577C125.102 118.784 138.02 113.387 144.886 120.523C144.886 120.523 137.331 120.764 135.705 128.252C135.929 128.465 157.026 143.35 147.907 143.35L144.363 141.418L141.748 143.53C141.748 143.53 138.029 140.51 133.266 138.458C133.266 138.458 131.987 129.581 133.731 124.265C133.731 124.265 128.152 126.56 125.015 136.223C125.015 136.223 112.001 130.908 93.7574 138.396C93.7574 138.396 87.367 161.222 115.487 182.239C115.938 140.461 188.996 140.461 189.448 182.239C217.568 161.224 211.176 138.396 211.176 138.396C192.933 130.908 179.919 136.223 179.919 136.223C176.781 126.56 171.203 124.265 171.203 124.265C172.946 129.581 171.668 138.458 171.668 138.458C166.903 140.51 163.185 143.53 163.185 143.53L160.57 141.418L157.026 143.35C147.907 143.35 169.004 128.465 169.226 128.252C167.599 120.764 160.046 120.523 160.046 120.523C166.913 113.387 179.831 118.784 187.412 122.577C187.412 122.577 182.474 121.852 176.548 124.931C213.828 127.738 245.73 130.084 216.29 168.111C216.29 168.111 223.029 166.178 227.096 158.328H227.094Z" fill="black"/>
<path d="M127.312 114.986C129.417 114.986 131.124 113.225 131.124 111.052C131.124 108.88 129.417 107.119 127.312 107.119C125.207 107.119 123.501 108.88 123.501 111.052C123.501 113.225 125.207 114.986 127.312 114.986Z" fill="url(#paint1_linear_112_59)"/>
<path d="M177.813 114.986C179.918 114.986 181.625 113.225 181.625 111.052C181.625 108.88 179.918 107.119 177.813 107.119C175.708 107.119 174.002 108.88 174.002 111.052C174.002 113.225 175.708 114.986 177.813 114.986Z" fill="url(#paint2_linear_112_59)"/>
<path d="M177.813 111.839C178.234 111.839 178.576 111.487 178.576 111.052C178.576 110.618 178.234 110.266 177.813 110.266C177.392 110.266 177.051 110.618 177.051 111.052C177.051 111.487 177.392 111.839 177.813 111.839Z" fill="black"/>
<path d="M128.075 111.839C128.496 111.839 128.837 111.487 128.837 111.052C128.837 110.618 128.496 110.266 128.075 110.266C127.654 110.266 127.312 110.618 127.312 111.052C127.312 111.487 127.654 111.839 128.075 111.839Z" fill="black"/>
</g>
<defs>
<linearGradient id="paint0_linear_112_59" x1="152.467" y1="67" x2="152.467" y2="232" gradientUnits="userSpaceOnUse">
<stop stop-color="#071D2D"/>
<stop offset="1" stop-color="#31383D"/>
</linearGradient>
<linearGradient id="paint1_linear_112_59" x1="152.467" y1="67" x2="152.467" y2="232" gradientUnits="userSpaceOnUse">
<stop stop-color="#071D2D"/>
<stop offset="1" stop-color="#31383D"/>
</linearGradient>
<linearGradient id="paint2_linear_112_59" x1="152.467" y1="67" x2="152.467" y2="232" gradientUnits="userSpaceOnUse">
<stop stop-color="#071D2D"/>
<stop offset="1" stop-color="#31383D"/>
</linearGradient>
<clipPath id="clip0_112_59">
<rect width="300" height="300" fill="white"/>
</clipPath>
</defs>
</svg>
