<svg width="50" height="50" viewBox="0 0 50 50" fill="none" xmlns="http://www.w3.org/2000/svg">
<circle cx="25" cy="25" r="23.75" fill="url(#paint0_radial_80_115)" stroke="#19202E" stroke-width="2.5"/>
<g filter="url(#filter0_d_80_115)">
<path fill-rule="evenodd" clip-rule="evenodd" d="M27.8384 24.1006L27.8901 25.0162L26.9253 24.6166L27.8387 24.1006H27.8384ZM30.1964 19.2553C30.1964 19.2553 31.5866 21.1678 27.9866 20.0222C27.9866 20.0222 28.7725 19.1738 30.1964 19.2553ZM28.311 22.3682C29.4605 23.7146 29.2733 25.9581 29.2733 25.9581C28.9704 25.4824 28.1593 25.1235 28.1593 25.1235C28.5156 23.526 28.311 22.3682 28.311 22.3682ZM30.9661 24.1136L29.6566 25.8907L29.5807 24.0551L30.9661 24.1133V24.1136ZM30.8559 24.8464L31.1743 27.3427L29.7569 26.2095L30.8556 24.8464H30.8559ZM32.7749 24.715C32.6323 26.7611 31.2243 28.1613 31.2243 28.1613C31.777 26.1954 31.3669 24.1764 31.3669 24.1764L32.7746 24.715H32.7749ZM22.162 24.1003L22.1107 25.0159L23.0754 24.6164L22.162 24.1003ZM19.804 19.255C19.804 19.255 18.4138 21.1676 22.0138 20.0219C22.0138 20.0219 21.2279 19.1735 19.804 19.255ZM21.6897 22.3679C20.5402 23.7143 20.7274 25.9579 20.7274 25.9579C21.0302 25.4821 21.8411 25.1232 21.8411 25.1232C21.4848 23.5257 21.6897 22.3679 21.6897 22.3679ZM19.0343 24.1133L20.3441 25.8904L20.42 24.0548L19.0343 24.113V24.1133ZM19.1446 24.8461L18.8259 27.3424L20.2432 26.2092L19.1446 24.8461ZM17.2255 24.7147C17.3681 26.7608 18.7761 28.1611 18.7761 28.1611C18.2237 26.1952 18.6335 24.1761 18.6335 24.1761L17.2255 24.7147ZM25.0004 17.8179C25.0004 17.8179 29.0721 13.2227 31.9946 16.4897C33.9352 12.6037 35.6826 20.2013 36.3076 20.5643C33.4688 19.874 32.8335 14.2304 27.5573 17.9257C32.769 15.3755 32.883 20.0761 34.0799 21.2464C34.0799 21.2464 32.6318 20.5239 31.0638 20.8382C31.0638 20.8382 31.447 19.7792 30.7609 18.9625C30.7609 18.9625 31.7144 18.9535 32.1598 19.5907C31.2636 14.5463 26.8728 21.9074 25.9578 18.7739C25.9578 18.7739 25.6816 19.5457 25.9043 20.0843C25.9043 20.0843 25.2101 19.4918 25.0004 18.0289C24.7906 19.4918 24.0961 20.0843 24.0961 20.0843C24.3191 19.5457 24.0426 18.7739 24.0426 18.7739C23.1276 21.9074 18.7371 14.5463 17.8409 19.5907C18.2866 18.9535 19.24 18.9625 19.24 18.9625C18.5539 19.7792 18.9372 20.8382 18.9372 20.8382C17.3689 20.5242 15.9211 21.2464 15.9211 21.2464C17.1182 20.0761 17.2317 15.3755 22.4436 17.9257C17.1672 14.2304 16.5319 19.874 13.6933 20.5643C14.3184 20.201 16.0653 12.6037 18.0063 16.4897C20.9291 13.2227 25.0006 17.8179 25.0006 17.8179H25.0004ZM27.8602 15.1791C27.8602 15.1791 26.2037 14.9637 25.0004 16.2023C23.797 14.9637 22.1405 15.1791 22.1405 15.1791C23.1607 14.1332 26.84 14.1332 27.8602 15.1791ZM37.4938 25.6244C38.8357 23.7717 37.6748 22.7488 37.0088 22.3528C37.9386 22.3349 38.6615 21.8394 38.9125 20.9408C35.8827 20.6805 36.8967 11.5475 31.7655 14.7554C31.4094 13.334 29.1302 14.0671 28.779 14.1893C26.7803 12.6817 23.219 12.6817 21.2206 14.1893C20.8697 14.0671 18.5905 13.334 18.2341 14.7554C13.1035 11.548 14.1174 20.681 11.0879 20.9414C11.3388 21.8399 12.0618 22.3354 12.9913 22.3533C12.3259 22.7493 11.1648 23.7722 12.5064 25.6249C4.67133 41.4098 45.3291 41.4098 37.4938 25.6249V25.6244ZM36.4456 26.5731C36.4456 26.5731 37.3905 30.6297 33.6837 33.2144C33.6837 33.2144 34.4499 30.899 33.2735 29.1398C33.2735 29.1398 33.9685 32.3705 29.7983 35.4582C29.7983 35.4582 31.1886 34.1297 31.0457 31.9758C29.9984 37.3388 20.0015 37.3388 18.9541 31.9758C18.8116 34.1297 20.2016 35.4582 20.2016 35.4582C16.0311 32.3705 16.7264 29.1398 16.7264 29.1398C15.5502 30.899 16.3165 33.2144 16.3165 33.2144C12.6097 30.6295 13.5545 26.5731 13.5545 26.5731C14.1782 27.7398 15.2118 28.027 15.2118 28.027C10.6963 22.3755 15.5892 22.0269 21.3067 21.6097C20.3979 21.1519 19.6405 21.2599 19.6405 21.2599C20.8032 20.6962 22.7844 19.8941 23.8374 20.9547C23.8374 20.9547 22.6787 20.9904 22.4294 22.1032C22.4638 22.1349 25.6994 24.3471 24.3008 24.3471L23.7572 24.0599L23.3562 24.3739C23.3562 24.3739 22.7857 23.925 22.0552 23.62C22.0552 23.62 21.8592 22.3007 22.1265 21.5108C22.1265 21.5108 21.2709 21.8519 20.7898 23.2879C20.7898 23.2879 18.7939 22.498 15.9959 23.6108C15.9959 23.6108 15.0158 27.0032 19.3285 30.1267C19.3977 23.9177 30.6025 23.9177 30.6719 30.1267C34.9846 27.0035 34.0043 23.6108 34.0043 23.6108C31.2063 22.498 29.2103 23.2879 29.2103 23.2879C28.7292 21.8519 27.8736 21.5108 27.8736 21.5108C28.141 22.3007 27.9449 23.62 27.9449 23.62C27.2141 23.925 26.644 24.3739 26.644 24.3739L26.2429 24.0599L25.6994 24.3471C24.3008 24.3471 27.5364 22.1349 27.5705 22.1032C27.3209 20.9904 26.1625 20.9547 26.1625 20.9547C27.2157 19.8941 29.1969 20.6962 30.3596 21.2599C30.3596 21.2599 29.6022 21.1521 28.6934 21.6097C34.411 22.0269 39.3039 22.3755 34.7886 28.027C34.7886 28.027 35.8222 27.7398 36.4459 26.5731H36.4456Z" fill="#030D14"/>
<path d="M21.1422 20.132C21.465 20.132 21.7267 19.8703 21.7267 19.5474C21.7267 19.2246 21.465 18.9629 21.1422 18.9629C20.8193 18.9629 20.5576 19.2246 20.5576 19.5474C20.5576 19.8703 20.8193 20.132 21.1422 20.132Z" fill="#030D14" fill-opacity="0.9"/>
<path d="M28.8863 20.132C29.2092 20.132 29.4709 19.8703 29.4709 19.5474C29.4709 19.2246 29.2092 18.9629 28.8863 18.9629C28.5635 18.9629 28.3018 19.2246 28.3018 19.5474C28.3018 19.8703 28.5635 20.132 28.8863 20.132Z" fill="#030D14" fill-opacity="0.9"/>
<path d="M28.8864 19.6635C28.951 19.6635 29.0034 19.6112 29.0034 19.5466C29.0034 19.482 28.951 19.4297 28.8864 19.4297C28.8219 19.4297 28.7695 19.482 28.7695 19.5466C28.7695 19.6112 28.8219 19.6635 28.8864 19.6635Z" fill="#F5F5F5" fill-opacity="0.95"/>
<path d="M21.2595 19.6635C21.3241 19.6635 21.3764 19.6112 21.3764 19.5466C21.3764 19.482 21.3241 19.4297 21.2595 19.4297C21.1949 19.4297 21.1426 19.482 21.1426 19.5466C21.1426 19.6112 21.1949 19.6635 21.2595 19.6635Z" fill="#F5F5F5" fill-opacity="0.95"/>
</g>
<defs>
<filter id="filter0_d_80_115" x="9.08789" y="13.0586" width="31.8242" height="28.4053" filterUnits="userSpaceOnUse" color-interpolation-filters="sRGB">
<feFlood flood-opacity="0" result="BackgroundImageFix"/>
<feColorMatrix in="SourceAlpha" type="matrix" values="0 0 0 0 0 0 0 0 0 0 0 0 0 0 0 0 0 0 127 0" result="hardAlpha"/>
<feOffset dy="2"/>
<feGaussianBlur stdDeviation="1"/>
<feComposite in2="hardAlpha" operator="out"/>
<feColorMatrix type="matrix" values="0 0 0 0 0 0 0 0 0 0 0 0 0 0 0 0 0 0 0.1 0"/>
<feBlend mode="normal" in2="BackgroundImageFix" result="effect1_dropShadow_80_115"/>
<feBlend mode="normal" in="SourceGraphic" in2="effect1_dropShadow_80_115" result="shape"/>
</filter>
<radialGradient id="paint0_radial_80_115" cx="0" cy="0" r="1" gradientUnits="userSpaceOnUse" gradientTransform="translate(25 25) rotate(90) scale(25)">
<stop stop-color="#F2F4F6"/>
<stop offset="1" stop-color="#F5F6F6"/>
</radialGradient>
</defs>
</svg>
