<svg width="900" height="900" viewBox="0 0 900 900" fill="none" xmlns="http://www.w3.org/2000/svg">
<circle cx="450" cy="450" r="432" fill="url(#paint0_linear_636_3236)"/>
<circle cx="450" cy="450" r="432" stroke="#8E8E8E" stroke-width="36"/>
<circle cx="450" cy="450" r="432" stroke="black" stroke-width="36"/>
<g filter="url(#filter0_i_636_3236)">
<circle cx="450.5" cy="449.5" r="416.5" stroke="#F2F2F2" stroke-opacity="0.1" stroke-width="8"/>
<circle cx="450.5" cy="449.5" r="416.5" stroke="#555555" stroke-width="8"/>
</g>
<g filter="url(#filter1_d_636_3236)">
<mask id="path-3-inside-1_636_3236" fill="white">
<path fill-rule="evenodd" clip-rule="evenodd" d="M512.824 424.226L513.958 444.561L492.773 435.687L512.83 424.226H512.824ZM568.187 310.117C568.187 310.117 590.595 375.167 506.941 335.03C506.941 335.03 538 312.464 568.187 310.117ZM523.201 385.753C548.443 415.654 544.333 465.48 544.333 465.48C537.682 454.915 519.87 446.944 519.87 446.944C527.695 411.466 523.201 385.753 523.201 385.753ZM581.506 424.515L552.749 463.982L551.083 423.216L581.506 424.509V424.515ZM579.084 440.789L586.077 496.229L554.951 471.063L579.078 440.789H579.084ZM621.224 437.872C618.094 483.312 587.175 514.41 587.175 514.41C599.312 470.75 590.305 425.911 590.305 425.911L621.218 437.872H621.224ZM388.176 424.22L387.048 444.555L408.233 435.682L388.176 424.22ZM332.807 310.117C332.807 310.117 313.511 374.847 394.047 335.03C394.047 335.03 356.673 310.117 332.807 310.117ZM377.805 385.747C352.563 415.647 356.673 465.474 356.673 465.474C363.323 454.909 381.13 446.938 381.13 446.938C373.305 411.46 377.805 385.747 377.805 385.747ZM319.494 424.509L348.257 463.976L349.922 423.21L319.494 424.503V424.509ZM321.916 440.784L314.918 496.223L346.042 471.057L321.916 440.784ZM279.776 437.865C282.906 483.306 313.825 514.404 313.825 514.404C301.694 470.744 310.695 425.905 310.695 425.905L279.776 437.865ZM450.503 284.698C450.503 284.698 539.915 182.644 604.09 255.2C646.702 168.897 685.074 337.629 698.8 345.691C636.461 330.361 622.511 205.025 506.652 287.092C621.094 230.456 623.598 334.849 649.88 360.839C649.88 360.839 618.082 344.794 583.649 351.773C583.649 351.773 592.065 328.255 576.999 310.117C576.999 310.117 597.936 309.918 607.716 324.068C588.037 212.04 491.621 375.519 471.529 305.929C471.529 305.929 465.463 323.069 470.353 335.03C470.353 335.03 455.109 321.872 450.503 289.384C445.896 321.872 430.647 335.03 430.647 335.03C435.543 323.069 429.471 305.929 429.471 305.929C409.379 375.519 312.969 212.04 293.289 324.068C303.076 309.918 321.916 310.117 321.916 310.117C306.85 328.255 319.494 351.773 319.494 351.773C285.056 344.8 251.132 360.839 251.132 360.839C277.42 334.849 279.912 230.456 394.36 287.092C278.495 205.025 264.545 330.361 202.212 345.691C215.938 337.623 254.298 168.897 296.921 255.2C361.103 182.644 450.509 284.698 450.509 284.698H450.503ZM513.302 226.094C513.302 226.094 476.926 221.311 450.503 248.817C424.079 221.311 387.704 226.094 387.704 226.094C410.105 202.865 490.9 202.865 513.302 226.094ZM724.845 458.068C754.312 416.923 728.82 394.205 714.197 385.41C734.614 385.013 750.487 374.009 756 354.053C689.468 348.272 711.734 145.44 599.058 216.684C576.999 187.964 541.19 201.397 533.477 204.11C489.589 170.63 411.387 170.63 367.505 204.11C359.797 201.397 328 190.464 301.924 216.684C189.26 145.452 211.526 348.283 145 354.065C150.51 374.021 166.386 385.025 186.797 385.422C172.186 394.218 146.689 416.935 176.149 458.08C4.09903 808.64 896.902 808.64 724.845 458.08V458.068ZM701.83 479.137C701.83 479.137 722.577 569.23 641.18 626.631C641.18 626.631 658.006 575.21 632.174 536.14C632.174 536.14 647.435 607.89 555.861 676.463C555.861 676.463 586.39 646.96 583.253 599.125C560.255 718.228 340.733 718.228 317.735 599.125C314.604 646.96 345.127 676.463 345.127 676.463C253.547 607.89 268.815 536.14 268.815 536.14C242.987 575.21 259.814 626.631 259.814 626.631C178.416 569.224 199.165 479.137 199.165 479.137C212.861 505.048 235.558 511.426 235.558 511.426C136.401 385.915 243.844 378.172 369.395 368.907C349.439 358.74 332.807 361.14 332.807 361.14C358.339 348.62 401.843 330.806 424.965 354.36C424.965 354.36 399.522 355.154 394.047 379.869C394.803 380.573 465.853 429.701 435.142 429.701L423.205 423.324L414.399 430.297C414.399 430.297 401.872 420.328 385.832 413.554C385.832 413.554 381.526 384.255 387.397 366.711C387.397 366.711 368.609 374.286 358.043 406.178C358.043 406.178 314.215 388.635 252.774 413.349C252.774 413.349 231.252 488.69 325.956 558.058C327.474 420.165 573.52 420.165 575.044 558.058C669.748 488.696 648.22 413.349 648.22 413.349C586.779 388.635 542.95 406.178 542.95 406.178C532.385 374.286 513.597 366.711 513.597 366.711C519.468 384.255 515.163 413.554 515.163 413.554C499.116 420.328 486.595 430.297 486.595 430.297L477.789 423.324L465.853 429.701C435.142 429.701 506.191 380.573 506.941 379.869C501.461 355.154 476.023 354.36 476.023 354.36C499.151 330.806 542.655 348.62 568.187 361.14C568.187 361.14 551.556 358.745 531.599 368.907C657.15 378.172 764.594 385.915 665.442 511.426C665.442 511.426 688.139 505.048 701.835 479.137H701.83Z"/>
</mask>
<path fill-rule="evenodd" clip-rule="evenodd" d="M512.824 424.226L513.958 444.561L492.773 435.687L512.83 424.226H512.824ZM568.187 310.117C568.187 310.117 590.595 375.167 506.941 335.03C506.941 335.03 538 312.464 568.187 310.117ZM523.201 385.753C548.443 415.654 544.333 465.48 544.333 465.48C537.682 454.915 519.87 446.944 519.87 446.944C527.695 411.466 523.201 385.753 523.201 385.753ZM581.506 424.515L552.749 463.982L551.083 423.216L581.506 424.509V424.515ZM579.084 440.789L586.077 496.229L554.951 471.063L579.078 440.789H579.084ZM621.224 437.872C618.094 483.312 587.175 514.41 587.175 514.41C599.312 470.75 590.305 425.911 590.305 425.911L621.218 437.872H621.224ZM388.176 424.22L387.048 444.555L408.233 435.682L388.176 424.22ZM332.807 310.117C332.807 310.117 313.511 374.847 394.047 335.03C394.047 335.03 356.673 310.117 332.807 310.117ZM377.805 385.747C352.563 415.647 356.673 465.474 356.673 465.474C363.323 454.909 381.13 446.938 381.13 446.938C373.305 411.46 377.805 385.747 377.805 385.747ZM319.494 424.509L348.257 463.976L349.922 423.21L319.494 424.503V424.509ZM321.916 440.784L314.918 496.223L346.042 471.057L321.916 440.784ZM279.776 437.865C282.906 483.306 313.825 514.404 313.825 514.404C301.694 470.744 310.695 425.905 310.695 425.905L279.776 437.865ZM450.503 284.698C450.503 284.698 539.915 182.644 604.09 255.2C646.702 168.897 685.074 337.629 698.8 345.691C636.461 330.361 622.511 205.025 506.652 287.092C621.094 230.456 623.598 334.849 649.88 360.839C649.88 360.839 618.082 344.794 583.649 351.773C583.649 351.773 592.065 328.255 576.999 310.117C576.999 310.117 597.936 309.918 607.716 324.068C588.037 212.04 491.621 375.519 471.529 305.929C471.529 305.929 465.463 323.069 470.353 335.03C470.353 335.03 455.109 321.872 450.503 289.384C445.896 321.872 430.647 335.03 430.647 335.03C435.543 323.069 429.471 305.929 429.471 305.929C409.379 375.519 312.969 212.04 293.289 324.068C303.076 309.918 321.916 310.117 321.916 310.117C306.85 328.255 319.494 351.773 319.494 351.773C285.056 344.8 251.132 360.839 251.132 360.839C277.42 334.849 279.912 230.456 394.36 287.092C278.495 205.025 264.545 330.361 202.212 345.691C215.938 337.623 254.298 168.897 296.921 255.2C361.103 182.644 450.509 284.698 450.509 284.698H450.503ZM513.302 226.094C513.302 226.094 476.926 221.311 450.503 248.817C424.079 221.311 387.704 226.094 387.704 226.094C410.105 202.865 490.9 202.865 513.302 226.094ZM724.845 458.068C754.312 416.923 728.82 394.205 714.197 385.41C734.614 385.013 750.487 374.009 756 354.053C689.468 348.272 711.734 145.44 599.058 216.684C576.999 187.964 541.19 201.397 533.477 204.11C489.589 170.63 411.387 170.63 367.505 204.11C359.797 201.397 328 190.464 301.924 216.684C189.26 145.452 211.526 348.283 145 354.065C150.51 374.021 166.386 385.025 186.797 385.422C172.186 394.218 146.689 416.935 176.149 458.08C4.09903 808.64 896.902 808.64 724.845 458.08V458.068ZM701.83 479.137C701.83 479.137 722.577 569.23 641.18 626.631C641.18 626.631 658.006 575.21 632.174 536.14C632.174 536.14 647.435 607.89 555.861 676.463C555.861 676.463 586.39 646.96 583.253 599.125C560.255 718.228 340.733 718.228 317.735 599.125C314.604 646.96 345.127 676.463 345.127 676.463C253.547 607.89 268.815 536.14 268.815 536.14C242.987 575.21 259.814 626.631 259.814 626.631C178.416 569.224 199.165 479.137 199.165 479.137C212.861 505.048 235.558 511.426 235.558 511.426C136.401 385.915 243.844 378.172 369.395 368.907C349.439 358.74 332.807 361.14 332.807 361.14C358.339 348.62 401.843 330.806 424.965 354.36C424.965 354.36 399.522 355.154 394.047 379.869C394.803 380.573 465.853 429.701 435.142 429.701L423.205 423.324L414.399 430.297C414.399 430.297 401.872 420.328 385.832 413.554C385.832 413.554 381.526 384.255 387.397 366.711C387.397 366.711 368.609 374.286 358.043 406.178C358.043 406.178 314.215 388.635 252.774 413.349C252.774 413.349 231.252 488.69 325.956 558.058C327.474 420.165 573.52 420.165 575.044 558.058C669.748 488.696 648.22 413.349 648.22 413.349C586.779 388.635 542.95 406.178 542.95 406.178C532.385 374.286 513.597 366.711 513.597 366.711C519.468 384.255 515.163 413.554 515.163 413.554C499.116 420.328 486.595 430.297 486.595 430.297L477.789 423.324L465.853 429.701C435.142 429.701 506.191 380.573 506.941 379.869C501.461 355.154 476.023 354.36 476.023 354.36C499.151 330.806 542.655 348.62 568.187 361.14C568.187 361.14 551.556 358.745 531.599 368.907C657.15 378.172 764.594 385.915 665.442 511.426C665.442 511.426 688.139 505.048 701.835 479.137H701.83Z" fill="black"/>
<path fill-rule="evenodd" clip-rule="evenodd" d="M512.824 424.226L513.958 444.561L492.773 435.687L512.83 424.226H512.824ZM568.187 310.117C568.187 310.117 590.595 375.167 506.941 335.03C506.941 335.03 538 312.464 568.187 310.117ZM523.201 385.753C548.443 415.654 544.333 465.48 544.333 465.48C537.682 454.915 519.87 446.944 519.87 446.944C527.695 411.466 523.201 385.753 523.201 385.753ZM581.506 424.515L552.749 463.982L551.083 423.216L581.506 424.509V424.515ZM579.084 440.789L586.077 496.229L554.951 471.063L579.078 440.789H579.084ZM621.224 437.872C618.094 483.312 587.175 514.41 587.175 514.41C599.312 470.75 590.305 425.911 590.305 425.911L621.218 437.872H621.224ZM388.176 424.22L387.048 444.555L408.233 435.682L388.176 424.22ZM332.807 310.117C332.807 310.117 313.511 374.847 394.047 335.03C394.047 335.03 356.673 310.117 332.807 310.117ZM377.805 385.747C352.563 415.647 356.673 465.474 356.673 465.474C363.323 454.909 381.13 446.938 381.13 446.938C373.305 411.46 377.805 385.747 377.805 385.747ZM319.494 424.509L348.257 463.976L349.922 423.21L319.494 424.503V424.509ZM321.916 440.784L314.918 496.223L346.042 471.057L321.916 440.784ZM279.776 437.865C282.906 483.306 313.825 514.404 313.825 514.404C301.694 470.744 310.695 425.905 310.695 425.905L279.776 437.865ZM450.503 284.698C450.503 284.698 539.915 182.644 604.09 255.2C646.702 168.897 685.074 337.629 698.8 345.691C636.461 330.361 622.511 205.025 506.652 287.092C621.094 230.456 623.598 334.849 649.88 360.839C649.88 360.839 618.082 344.794 583.649 351.773C583.649 351.773 592.065 328.255 576.999 310.117C576.999 310.117 597.936 309.918 607.716 324.068C588.037 212.04 491.621 375.519 471.529 305.929C471.529 305.929 465.463 323.069 470.353 335.03C470.353 335.03 455.109 321.872 450.503 289.384C445.896 321.872 430.647 335.03 430.647 335.03C435.543 323.069 429.471 305.929 429.471 305.929C409.379 375.519 312.969 212.04 293.289 324.068C303.076 309.918 321.916 310.117 321.916 310.117C306.85 328.255 319.494 351.773 319.494 351.773C285.056 344.8 251.132 360.839 251.132 360.839C277.42 334.849 279.912 230.456 394.36 287.092C278.495 205.025 264.545 330.361 202.212 345.691C215.938 337.623 254.298 168.897 296.921 255.2C361.103 182.644 450.509 284.698 450.509 284.698H450.503ZM513.302 226.094C513.302 226.094 476.926 221.311 450.503 248.817C424.079 221.311 387.704 226.094 387.704 226.094C410.105 202.865 490.9 202.865 513.302 226.094ZM724.845 458.068C754.312 416.923 728.82 394.205 714.197 385.41C734.614 385.013 750.487 374.009 756 354.053C689.468 348.272 711.734 145.44 599.058 216.684C576.999 187.964 541.19 201.397 533.477 204.11C489.589 170.63 411.387 170.63 367.505 204.11C359.797 201.397 328 190.464 301.924 216.684C189.26 145.452 211.526 348.283 145 354.065C150.51 374.021 166.386 385.025 186.797 385.422C172.186 394.218 146.689 416.935 176.149 458.08C4.09903 808.64 896.902 808.64 724.845 458.08V458.068ZM701.83 479.137C701.83 479.137 722.577 569.23 641.18 626.631C641.18 626.631 658.006 575.21 632.174 536.14C632.174 536.14 647.435 607.89 555.861 676.463C555.861 676.463 586.39 646.96 583.253 599.125C560.255 718.228 340.733 718.228 317.735 599.125C314.604 646.96 345.127 676.463 345.127 676.463C253.547 607.89 268.815 536.14 268.815 536.14C242.987 575.21 259.814 626.631 259.814 626.631C178.416 569.224 199.165 479.137 199.165 479.137C212.861 505.048 235.558 511.426 235.558 511.426C136.401 385.915 243.844 378.172 369.395 368.907C349.439 358.74 332.807 361.14 332.807 361.14C358.339 348.62 401.843 330.806 424.965 354.36C424.965 354.36 399.522 355.154 394.047 379.869C394.803 380.573 465.853 429.701 435.142 429.701L423.205 423.324L414.399 430.297C414.399 430.297 401.872 420.328 385.832 413.554C385.832 413.554 381.526 384.255 387.397 366.711C387.397 366.711 368.609 374.286 358.043 406.178C358.043 406.178 314.215 388.635 252.774 413.349C252.774 413.349 231.252 488.69 325.956 558.058C327.474 420.165 573.52 420.165 575.044 558.058C669.748 488.696 648.22 413.349 648.22 413.349C586.779 388.635 542.95 406.178 542.95 406.178C532.385 374.286 513.597 366.711 513.597 366.711C519.468 384.255 515.163 413.554 515.163 413.554C499.116 420.328 486.595 430.297 486.595 430.297L477.789 423.324L465.853 429.701C435.142 429.701 506.191 380.573 506.941 379.869C501.461 355.154 476.023 354.36 476.023 354.36C499.151 330.806 542.655 348.62 568.187 361.14C568.187 361.14 551.556 358.745 531.599 368.907C657.15 378.172 764.594 385.915 665.442 511.426C665.442 511.426 688.139 505.048 701.835 479.137H701.83Z" stroke="#474747" stroke-width="2" mask="url(#path-3-inside-1_636_3236)"/>
</g>
<circle cx="527.5" cy="327.5" r="12.5" fill="black"/>
<circle cx="374.5" cy="327.5" r="12.5" fill="black"/>
<ellipse cx="540" cy="327" rx="3" ry="4" transform="rotate(11.3458 540 327)" fill="#FBFBFB"/>
<path d="M542.893 327.581C542.677 328.654 542.156 329.558 541.49 330.153C540.824 330.749 540.016 331.032 539.223 330.873C538.43 330.714 537.794 330.14 537.409 329.335C537.024 328.529 536.892 327.493 537.108 326.42C537.323 325.347 537.844 324.442 538.51 323.847C539.176 323.252 539.984 322.968 540.777 323.127C541.571 323.287 542.207 323.86 542.591 324.666C542.976 325.472 543.108 326.507 542.893 327.581Z" stroke="white" stroke-opacity="0.8" stroke-width="0.1"/>
<ellipse cx="361.999" cy="327" rx="3" ry="4" transform="rotate(-12.7643 361.999 327)" fill="#FBFBFB"/>
<path d="M364.876 326.348C365.118 327.416 365.012 328.454 364.647 329.269C364.283 330.085 363.661 330.674 362.872 330.852C362.083 331.031 361.268 330.768 360.587 330.189C359.907 329.611 359.364 328.72 359.122 327.652C358.88 326.584 358.986 325.546 359.351 324.731C359.716 323.916 360.337 323.326 361.126 323.148C361.916 322.969 362.73 323.233 363.411 323.811C364.091 324.389 364.634 325.281 364.876 326.348Z" stroke="white" stroke-opacity="0.8" stroke-width="0.1"/>
<defs>
<filter id="filter0_i_636_3236" x="30" y="29" width="841" height="845" filterUnits="userSpaceOnUse" color-interpolation-filters="sRGB">
<feFlood flood-opacity="0" result="BackgroundImageFix"/>
<feBlend mode="normal" in="SourceGraphic" in2="BackgroundImageFix" result="shape"/>
<feColorMatrix in="SourceAlpha" type="matrix" values="0 0 0 0 0 0 0 0 0 0 0 0 0 0 0 0 0 0 127 0" result="hardAlpha"/>
<feOffset dy="4"/>
<feGaussianBlur stdDeviation="2"/>
<feComposite in2="hardAlpha" operator="arithmetic" k2="-1" k3="1"/>
<feColorMatrix type="matrix" values="0 0 0 0 0 0 0 0 0 0 0 0 0 0 0 0 0 0 0.25 0"/>
<feBlend mode="normal" in2="shape" result="effect1_innerShadow_636_3236"/>
</filter>
<filter id="filter1_d_636_3236" x="143" y="179" width="615" height="547" filterUnits="userSpaceOnUse" color-interpolation-filters="sRGB">
<feFlood flood-opacity="0" result="BackgroundImageFix"/>
<feColorMatrix in="SourceAlpha" type="matrix" values="0 0 0 0 0 0 0 0 0 0 0 0 0 0 0 0 0 0 127 0" result="hardAlpha"/>
<feOffset dy="3"/>
<feGaussianBlur stdDeviation="1"/>
<feComposite in2="hardAlpha" operator="out"/>
<feColorMatrix type="matrix" values="0 0 0 0 0 0 0 0 0 0 0 0 0 0 0 0 0 0 0.08 0"/>
<feBlend mode="normal" in2="BackgroundImageFix" result="effect1_dropShadow_636_3236"/>
<feBlend mode="normal" in="SourceGraphic" in2="effect1_dropShadow_636_3236" result="shape"/>
</filter>
<linearGradient id="paint0_linear_636_3236" x1="450" y1="0" x2="450" y2="900" gradientUnits="userSpaceOnUse">
<stop stop-color="white"/>
<stop offset="1" stop-color="#F6F6F6"/>
</linearGradient>
</defs>
</svg>
