<svg width="908" height="908" viewBox="0 0 908 908" fill="none" xmlns="http://www.w3.org/2000/svg">
<circle cx="454" cy="454" r="430" fill="white"/>
<circle cx="454" cy="454" r="430" stroke="#323232" stroke-width="40"/>
<circle cx="454" cy="454" r="430" stroke="url(#paint0_linear_346_884)" stroke-width="40"/>
<g filter="url(#filter0_d_346_884)">
<g filter="url(#filter1_d_346_884)">
<mask id="path-2-outside-1_346_884" maskUnits="userSpaceOnUse" x="153" y="183" width="595" height="533" fill="black">
<rect fill="white" x="153" y="183" width="595" height="533"/>
<path fill-rule="evenodd" clip-rule="evenodd" d="M510.784 424.344L511.881 444.191L491.389 435.53L510.789 424.344H510.784ZM560.868 319.319C560.868 319.319 590.396 360.775 513.931 335.942C513.931 335.942 530.624 317.552 560.868 319.319ZM520.821 386.793C545.237 415.977 541.261 464.608 541.261 464.608C534.829 454.297 517.599 446.517 517.599 446.517C525.168 411.891 520.821 386.793 520.821 386.793ZM577.217 424.627L549.402 463.147L547.791 423.358L577.217 424.621V424.627ZM574.875 440.51L581.639 494.621L551.533 470.058L574.869 440.51H574.875ZM615.636 437.663C612.608 482.013 582.701 512.365 582.701 512.365C594.441 469.752 585.729 425.989 585.729 425.989L615.63 437.663H615.636ZM390.216 424.338L389.125 444.186L409.617 435.525L390.216 424.338ZM340.132 319.313C340.132 319.313 310.604 360.77 387.069 335.937C387.069 335.937 370.376 317.546 340.132 319.313ZM380.184 386.788C355.769 415.971 359.744 464.603 359.744 464.603C366.177 454.291 383.401 446.511 383.401 446.511C375.832 411.885 380.184 386.788 380.184 386.788ZM323.783 424.621L351.604 463.141L353.215 423.352L323.783 424.615V424.621ZM326.125 440.505L319.356 494.614L349.461 470.052L326.125 440.505ZM285.364 437.656C288.392 482.008 318.299 512.359 318.299 512.359C306.565 469.746 315.271 425.982 315.271 425.982L285.364 437.656ZM450.503 288.162C450.503 288.162 536.987 188.557 599.063 259.372C640.28 175.14 677.396 339.824 690.672 347.693C630.374 332.73 616.881 210.401 504.814 290.5C615.509 235.221 617.932 337.111 643.353 362.478C643.353 362.478 612.596 346.818 579.291 353.629C579.291 353.629 587.431 330.675 572.858 312.972C572.858 312.972 593.11 312.778 602.57 326.588C583.535 217.247 490.276 376.806 470.841 308.885C470.841 308.885 464.973 325.614 469.704 337.288C469.704 337.288 454.959 324.445 450.503 292.737C446.047 324.445 431.296 337.288 431.296 337.288C436.032 325.614 430.159 308.885 430.159 308.885C410.724 376.806 317.47 217.247 298.435 326.588C307.901 312.778 328.153 312.972 328.153 312.972C313.58 330.675 321.72 353.629 321.72 353.629C288.41 346.824 257.658 362.478 257.658 362.478C283.086 337.111 285.496 235.221 396.198 290.5C284.125 210.401 270.631 332.73 210.339 347.693C223.616 339.818 260.72 175.14 301.949 259.372C364.029 188.557 450.509 288.162 450.509 288.162H450.503ZM511.247 230.964C511.247 230.964 476.062 226.296 450.503 253.142C424.944 226.296 389.759 230.964 389.759 230.964C411.428 208.293 489.578 208.293 511.247 230.964ZM715.865 457.374C744.368 417.216 719.71 395.043 705.565 386.459C725.314 386.071 740.668 375.332 746 355.854C681.646 350.212 703.183 152.245 594.195 221.78C586.631 190.97 538.222 206.86 530.761 209.508C488.31 176.831 412.667 176.831 370.221 209.508C362.767 206.86 314.357 190.97 306.787 221.78C197.811 152.257 219.348 350.223 155 355.866C160.33 375.343 175.686 386.084 195.429 386.47C181.296 395.055 156.634 417.228 185.129 457.386C18.7113 799.538 882.29 799.538 715.865 457.386V457.374ZM693.602 477.938C693.602 477.938 713.671 565.87 634.939 621.895C634.939 621.895 651.214 571.706 626.227 533.575C626.227 533.575 640.988 603.604 552.412 670.532C552.412 670.532 581.941 641.736 578.908 595.048C556.663 711.294 344.326 711.294 322.081 595.048C319.053 641.736 348.576 670.532 348.576 670.532C259.994 603.604 274.762 533.575 274.762 533.575C249.78 571.706 266.056 621.895 266.056 621.895C187.322 565.865 207.392 477.938 207.392 477.938C220.639 503.228 242.594 509.453 242.594 509.453C146.682 386.952 250.608 379.395 372.05 370.352C352.746 360.429 336.659 362.771 336.659 362.771C361.356 350.552 403.436 333.165 425.801 356.154C425.801 356.154 401.191 356.929 395.895 381.051C396.626 381.738 465.35 429.689 435.644 429.689L424.099 423.464L415.58 430.269C415.58 430.269 403.464 420.539 387.948 413.928C387.948 413.928 383.784 385.332 389.463 368.209C389.463 368.209 371.29 375.602 361.069 406.729C361.069 406.729 318.676 389.607 259.247 413.728C259.247 413.728 238.429 487.263 330.033 554.966C331.501 420.381 569.493 420.381 570.967 554.966C662.571 487.268 641.748 413.728 641.748 413.728C582.318 389.607 539.924 406.729 539.924 406.729C529.704 375.602 511.532 368.209 511.532 368.209C517.21 385.332 513.046 413.928 513.046 413.928C497.524 420.539 485.414 430.269 485.414 430.269L476.896 423.464L465.35 429.689C435.644 429.689 504.369 381.738 505.093 381.051C499.792 356.929 475.188 356.154 475.188 356.154C497.559 333.165 539.638 350.552 564.335 362.771C564.335 362.771 548.248 360.434 528.945 370.352C650.386 379.395 754.313 386.952 658.406 509.453C658.406 509.453 680.36 503.228 693.608 477.938H693.602Z"/>
</mask>
<path fill-rule="evenodd" clip-rule="evenodd" d="M510.784 424.344L511.881 444.191L491.389 435.53L510.789 424.344H510.784ZM560.868 319.319C560.868 319.319 590.396 360.775 513.931 335.942C513.931 335.942 530.624 317.552 560.868 319.319ZM520.821 386.793C545.237 415.977 541.261 464.608 541.261 464.608C534.829 454.297 517.599 446.517 517.599 446.517C525.168 411.891 520.821 386.793 520.821 386.793ZM577.217 424.627L549.402 463.147L547.791 423.358L577.217 424.621V424.627ZM574.875 440.51L581.639 494.621L551.533 470.058L574.869 440.51H574.875ZM615.636 437.663C612.608 482.013 582.701 512.365 582.701 512.365C594.441 469.752 585.729 425.989 585.729 425.989L615.63 437.663H615.636ZM390.216 424.338L389.125 444.186L409.617 435.525L390.216 424.338ZM340.132 319.313C340.132 319.313 310.604 360.77 387.069 335.937C387.069 335.937 370.376 317.546 340.132 319.313ZM380.184 386.788C355.769 415.971 359.744 464.603 359.744 464.603C366.177 454.291 383.401 446.511 383.401 446.511C375.832 411.885 380.184 386.788 380.184 386.788ZM323.783 424.621L351.604 463.141L353.215 423.352L323.783 424.615V424.621ZM326.125 440.505L319.356 494.614L349.461 470.052L326.125 440.505ZM285.364 437.656C288.392 482.008 318.299 512.359 318.299 512.359C306.565 469.746 315.271 425.982 315.271 425.982L285.364 437.656ZM450.503 288.162C450.503 288.162 536.987 188.557 599.063 259.372C640.28 175.14 677.396 339.824 690.672 347.693C630.374 332.73 616.881 210.401 504.814 290.5C615.509 235.221 617.932 337.111 643.353 362.478C643.353 362.478 612.596 346.818 579.291 353.629C579.291 353.629 587.431 330.675 572.858 312.972C572.858 312.972 593.11 312.778 602.57 326.588C583.535 217.247 490.276 376.806 470.841 308.885C470.841 308.885 464.973 325.614 469.704 337.288C469.704 337.288 454.959 324.445 450.503 292.737C446.047 324.445 431.296 337.288 431.296 337.288C436.032 325.614 430.159 308.885 430.159 308.885C410.724 376.806 317.47 217.247 298.435 326.588C307.901 312.778 328.153 312.972 328.153 312.972C313.58 330.675 321.72 353.629 321.72 353.629C288.41 346.824 257.658 362.478 257.658 362.478C283.086 337.111 285.496 235.221 396.198 290.5C284.125 210.401 270.631 332.73 210.339 347.693C223.616 339.818 260.72 175.14 301.949 259.372C364.029 188.557 450.509 288.162 450.509 288.162H450.503ZM511.247 230.964C511.247 230.964 476.062 226.296 450.503 253.142C424.944 226.296 389.759 230.964 389.759 230.964C411.428 208.293 489.578 208.293 511.247 230.964ZM715.865 457.374C744.368 417.216 719.71 395.043 705.565 386.459C725.314 386.071 740.668 375.332 746 355.854C681.646 350.212 703.183 152.245 594.195 221.78C586.631 190.97 538.222 206.86 530.761 209.508C488.31 176.831 412.667 176.831 370.221 209.508C362.767 206.86 314.357 190.97 306.787 221.78C197.811 152.257 219.348 350.223 155 355.866C160.33 375.343 175.686 386.084 195.429 386.47C181.296 395.055 156.634 417.228 185.129 457.386C18.7113 799.538 882.29 799.538 715.865 457.386V457.374ZM693.602 477.938C693.602 477.938 713.671 565.87 634.939 621.895C634.939 621.895 651.214 571.706 626.227 533.575C626.227 533.575 640.988 603.604 552.412 670.532C552.412 670.532 581.941 641.736 578.908 595.048C556.663 711.294 344.326 711.294 322.081 595.048C319.053 641.736 348.576 670.532 348.576 670.532C259.994 603.604 274.762 533.575 274.762 533.575C249.78 571.706 266.056 621.895 266.056 621.895C187.322 565.865 207.392 477.938 207.392 477.938C220.639 503.228 242.594 509.453 242.594 509.453C146.682 386.952 250.608 379.395 372.05 370.352C352.746 360.429 336.659 362.771 336.659 362.771C361.356 350.552 403.436 333.165 425.801 356.154C425.801 356.154 401.191 356.929 395.895 381.051C396.626 381.738 465.35 429.689 435.644 429.689L424.099 423.464L415.58 430.269C415.58 430.269 403.464 420.539 387.948 413.928C387.948 413.928 383.784 385.332 389.463 368.209C389.463 368.209 371.29 375.602 361.069 406.729C361.069 406.729 318.676 389.607 259.247 413.728C259.247 413.728 238.429 487.263 330.033 554.966C331.501 420.381 569.493 420.381 570.967 554.966C662.571 487.268 641.748 413.728 641.748 413.728C582.318 389.607 539.924 406.729 539.924 406.729C529.704 375.602 511.532 368.209 511.532 368.209C517.21 385.332 513.046 413.928 513.046 413.928C497.524 420.539 485.414 430.269 485.414 430.269L476.896 423.464L465.35 429.689C435.644 429.689 504.369 381.738 505.093 381.051C499.792 356.929 475.188 356.154 475.188 356.154C497.559 333.165 539.638 350.552 564.335 362.771C564.335 362.771 548.248 360.434 528.945 370.352C650.386 379.395 754.313 386.952 658.406 509.453C658.406 509.453 680.36 503.228 693.608 477.938H693.602Z" fill="url(#paint1_linear_346_884)" shape-rendering="crispEdges"/>
<path fill-rule="evenodd" clip-rule="evenodd" d="M510.784 424.344L511.881 444.191L491.389 435.53L510.789 424.344H510.784ZM560.868 319.319C560.868 319.319 590.396 360.775 513.931 335.942C513.931 335.942 530.624 317.552 560.868 319.319ZM520.821 386.793C545.237 415.977 541.261 464.608 541.261 464.608C534.829 454.297 517.599 446.517 517.599 446.517C525.168 411.891 520.821 386.793 520.821 386.793ZM577.217 424.627L549.402 463.147L547.791 423.358L577.217 424.621V424.627ZM574.875 440.51L581.639 494.621L551.533 470.058L574.869 440.51H574.875ZM615.636 437.663C612.608 482.013 582.701 512.365 582.701 512.365C594.441 469.752 585.729 425.989 585.729 425.989L615.63 437.663H615.636ZM390.216 424.338L389.125 444.186L409.617 435.525L390.216 424.338ZM340.132 319.313C340.132 319.313 310.604 360.77 387.069 335.937C387.069 335.937 370.376 317.546 340.132 319.313ZM380.184 386.788C355.769 415.971 359.744 464.603 359.744 464.603C366.177 454.291 383.401 446.511 383.401 446.511C375.832 411.885 380.184 386.788 380.184 386.788ZM323.783 424.621L351.604 463.141L353.215 423.352L323.783 424.615V424.621ZM326.125 440.505L319.356 494.614L349.461 470.052L326.125 440.505ZM285.364 437.656C288.392 482.008 318.299 512.359 318.299 512.359C306.565 469.746 315.271 425.982 315.271 425.982L285.364 437.656ZM450.503 288.162C450.503 288.162 536.987 188.557 599.063 259.372C640.28 175.14 677.396 339.824 690.672 347.693C630.374 332.73 616.881 210.401 504.814 290.5C615.509 235.221 617.932 337.111 643.353 362.478C643.353 362.478 612.596 346.818 579.291 353.629C579.291 353.629 587.431 330.675 572.858 312.972C572.858 312.972 593.11 312.778 602.57 326.588C583.535 217.247 490.276 376.806 470.841 308.885C470.841 308.885 464.973 325.614 469.704 337.288C469.704 337.288 454.959 324.445 450.503 292.737C446.047 324.445 431.296 337.288 431.296 337.288C436.032 325.614 430.159 308.885 430.159 308.885C410.724 376.806 317.47 217.247 298.435 326.588C307.901 312.778 328.153 312.972 328.153 312.972C313.58 330.675 321.72 353.629 321.72 353.629C288.41 346.824 257.658 362.478 257.658 362.478C283.086 337.111 285.496 235.221 396.198 290.5C284.125 210.401 270.631 332.73 210.339 347.693C223.616 339.818 260.72 175.14 301.949 259.372C364.029 188.557 450.509 288.162 450.509 288.162H450.503ZM511.247 230.964C511.247 230.964 476.062 226.296 450.503 253.142C424.944 226.296 389.759 230.964 389.759 230.964C411.428 208.293 489.578 208.293 511.247 230.964ZM715.865 457.374C744.368 417.216 719.71 395.043 705.565 386.459C725.314 386.071 740.668 375.332 746 355.854C681.646 350.212 703.183 152.245 594.195 221.78C586.631 190.97 538.222 206.86 530.761 209.508C488.31 176.831 412.667 176.831 370.221 209.508C362.767 206.86 314.357 190.97 306.787 221.78C197.811 152.257 219.348 350.223 155 355.866C160.33 375.343 175.686 386.084 195.429 386.47C181.296 395.055 156.634 417.228 185.129 457.386C18.7113 799.538 882.29 799.538 715.865 457.386V457.374ZM693.602 477.938C693.602 477.938 713.671 565.87 634.939 621.895C634.939 621.895 651.214 571.706 626.227 533.575C626.227 533.575 640.988 603.604 552.412 670.532C552.412 670.532 581.941 641.736 578.908 595.048C556.663 711.294 344.326 711.294 322.081 595.048C319.053 641.736 348.576 670.532 348.576 670.532C259.994 603.604 274.762 533.575 274.762 533.575C249.78 571.706 266.056 621.895 266.056 621.895C187.322 565.865 207.392 477.938 207.392 477.938C220.639 503.228 242.594 509.453 242.594 509.453C146.682 386.952 250.608 379.395 372.05 370.352C352.746 360.429 336.659 362.771 336.659 362.771C361.356 350.552 403.436 333.165 425.801 356.154C425.801 356.154 401.191 356.929 395.895 381.051C396.626 381.738 465.35 429.689 435.644 429.689L424.099 423.464L415.58 430.269C415.58 430.269 403.464 420.539 387.948 413.928C387.948 413.928 383.784 385.332 389.463 368.209C389.463 368.209 371.29 375.602 361.069 406.729C361.069 406.729 318.676 389.607 259.247 413.728C259.247 413.728 238.429 487.263 330.033 554.966C331.501 420.381 569.493 420.381 570.967 554.966C662.571 487.268 641.748 413.728 641.748 413.728C582.318 389.607 539.924 406.729 539.924 406.729C529.704 375.602 511.532 368.209 511.532 368.209C517.21 385.332 513.046 413.928 513.046 413.928C497.524 420.539 485.414 430.269 485.414 430.269L476.896 423.464L465.35 429.689C435.644 429.689 504.369 381.738 505.093 381.051C499.792 356.929 475.188 356.154 475.188 356.154C497.559 333.165 539.638 350.552 564.335 362.771C564.335 362.771 548.248 360.434 528.945 370.352C650.386 379.395 754.313 386.952 658.406 509.453C658.406 509.453 680.36 503.228 693.608 477.938H693.602Z" stroke="#ACACAC" stroke-opacity="0.25" stroke-width="3" shape-rendering="crispEdges" mask="url(#path-2-outside-1_346_884)"/>
</g>
<path d="M368.104 338.929C374.961 338.929 380.519 333.256 380.519 326.258C380.519 319.26 374.961 313.588 368.104 313.588C361.246 313.588 355.687 319.26 355.687 326.258C355.687 333.256 361.246 338.929 368.104 338.929Z" fill="#020202"/>
<path d="M532.614 338.929C539.471 338.929 545.031 333.256 545.031 326.258C545.031 319.26 539.471 313.588 532.614 313.588C525.757 313.588 520.198 319.26 520.198 326.258C520.198 333.256 525.757 338.929 532.614 338.929Z" fill="#020202"/>
<path d="M532.614 328.792C533.986 328.792 535.098 327.658 535.098 326.258C535.098 324.859 533.986 323.725 532.614 323.725C531.244 323.725 530.131 324.859 530.131 326.258C530.131 327.658 531.244 328.792 532.614 328.792Z" fill="#4C4C4C"/>
<path d="M370.586 328.792C371.958 328.792 373.069 327.658 373.069 326.258C373.069 324.859 371.958 323.725 370.586 323.725C369.214 323.725 368.103 324.859 368.103 326.258C368.103 327.658 369.214 328.792 370.586 328.792Z" fill="#4C4C4C"/>
</g>
<g filter="url(#filter2_i_346_884)">
<circle cx="454" cy="454" r="409" stroke="url(#paint2_radial_346_884)" stroke-width="12"/>
</g>
<defs>
<filter id="filter0_d_346_884" x="149.079" y="183.5" width="602.842" height="540" filterUnits="userSpaceOnUse" color-interpolation-filters="sRGB">
<feFlood flood-opacity="0" result="BackgroundImageFix"/>
<feColorMatrix in="SourceAlpha" type="matrix" values="0 0 0 0 0 0 0 0 0 0 0 0 0 0 0 0 0 0 127 0" result="hardAlpha"/>
<feOffset dy="4"/>
<feGaussianBlur stdDeviation="2"/>
<feComposite in2="hardAlpha" operator="out"/>
<feColorMatrix type="matrix" values="0 0 0 0 0 0 0 0 0 0 0 0 0 0 0 0 0 0 0.04 0"/>
<feBlend mode="normal" in2="BackgroundImageFix" result="effect1_dropShadow_346_884"/>
<feBlend mode="normal" in="SourceGraphic" in2="effect1_dropShadow_346_884" result="shape"/>
</filter>
<filter id="filter1_d_346_884" x="148.079" y="182.5" width="604.842" height="542" filterUnits="userSpaceOnUse" color-interpolation-filters="sRGB">
<feFlood flood-opacity="0" result="BackgroundImageFix"/>
<feColorMatrix in="SourceAlpha" type="matrix" values="0 0 0 0 0 0 0 0 0 0 0 0 0 0 0 0 0 0 127 0" result="hardAlpha"/>
<feOffset dy="4"/>
<feGaussianBlur stdDeviation="2.5"/>
<feComposite in2="hardAlpha" operator="out"/>
<feColorMatrix type="matrix" values="0 0 0 0 0.0117647 0 0 0 0 0.0509804 0 0 0 0 0.0784314 0 0 0 0.02 0"/>
<feBlend mode="normal" in2="BackgroundImageFix" result="effect1_dropShadow_346_884"/>
<feBlend mode="normal" in="SourceGraphic" in2="effect1_dropShadow_346_884" result="shape"/>
</filter>
<filter id="filter2_i_346_884" x="39" y="39" width="830" height="834" filterUnits="userSpaceOnUse" color-interpolation-filters="sRGB">
<feFlood flood-opacity="0" result="BackgroundImageFix"/>
<feBlend mode="normal" in="SourceGraphic" in2="BackgroundImageFix" result="shape"/>
<feColorMatrix in="SourceAlpha" type="matrix" values="0 0 0 0 0 0 0 0 0 0 0 0 0 0 0 0 0 0 127 0" result="hardAlpha"/>
<feOffset dy="4"/>
<feGaussianBlur stdDeviation="2"/>
<feComposite in2="hardAlpha" operator="arithmetic" k2="-1" k3="1"/>
<feColorMatrix type="matrix" values="0 0 0 0 0 0 0 0 0 0 0 0 0 0 0 0 0 0 0.25 0"/>
<feBlend mode="normal" in2="shape" result="effect1_innerShadow_346_884"/>
</filter>
<linearGradient id="paint0_linear_346_884" x1="454" y1="4" x2="454" y2="904" gradientUnits="userSpaceOnUse">
<stop stop-color="#2E2E2E" stop-opacity="0.55"/>
<stop offset="1" stop-color="#2C2C2C"/>
</linearGradient>
<linearGradient id="paint1_linear_346_884" x1="450.5" y1="185" x2="450.5" y2="714" gradientUnits="userSpaceOnUse">
<stop stop-color="#272727"/>
<stop offset="1" stop-color="#121212"/>
</linearGradient>
<radialGradient id="paint2_radial_346_884" cx="0" cy="0" r="1" gradientUnits="userSpaceOnUse" gradientTransform="translate(454 39) rotate(90) scale(830)">
<stop stop-color="#4F4F4F"/>
<stop offset="0.975" stop-color="#444444"/>
</radialGradient>
</defs>
</svg>
